#!OML:ASF F:\VICON\USERDATA\Patient Classification 1\PLAYGROUND\JustinFriday\JustinFriday.ASF
:FULLY-SPECIFIED
:DEGREES
1444
root 12.8558 19.7165 30.4032 165.332 7.52116 -179.066
lowerback 13.4849 1.29478 0.67758
upperback -2.82813 2.00295 1.30716
thorax -10.6935 0.968759 0.581747
lowerneck 8.3804 -5.45034 -8.16804
upperneck 18.1419 -6.22763 3.30709
head 4.50509 -2.62487 2.33818
rclavicle 9.93923e-017 -6.95746e-015
rhumerus 110.155 -28.2764 -56.2501
rradius 25.4955
rwrist 0.975972
rhand -14.3806 -20.4694
rfingers 7.12502
rthumb 11.7621 -50.1191
lclavicle 9.93923e-017 -6.95746e-015
lhumerus 98.0846 37.677 35.5385
lradius 29.2376
lwrist 5.94242
lhand -19.9663 7.08086
lfingers 7.12502
lthumb 6.37239 36.965
rfemur 1.58056 -1.3361 19.371
rtibia 31.7499
rfoot 48.4824 -16.6898
rtoes 66.2317
lfemur 0.150324 -0.270365 -14.4066
ltibia 29.7706
lfoot 10.7646 0.80286
ltoes -0.423713
1445
root 12.8585 19.6619 30.329 165.851 7.86981 -178.486
lowerback 12.8709 1.00641 1.44361
upperback -2.87332 1.76011 1.44803
thorax -10.3627 0.816741 0.36607
lowerneck 9.60302 -5.37687 -8.53228
upperneck 17.4062 -6.19394 2.93018
head 4.092 -2.65378 2.30818
rclavicle -3.08116e-015 -1.43125e-014
rhumerus 110.89 -27.9131 -56.8694
rradius 25.0614
rwrist 0.947255
rhand -16.3932 -20.4203
rfingers 7.12502
rthumb 9.82083 -50.1713
lclavicle -3.08116e-015 -1.43125e-014
lhumerus 98.2903 38.2003 35.8014
lradius 29.3085
lwrist 5.09168
lhand -19.2366 6.83707
lfingers 7.12502
lthumb 7.07674 36.6988
rfemur 1.37592 -1.15357 20.1726
rtibia 31.7356
rfoot 48.4161 -17.6083
rtoes 66.2493
lfemur -0.0664806 -0.114999 -13.6393
ltibia 29.8534
lfoot 10.6804 1.21274
ltoes 0.0381376
1446
root 12.8632 19.6041 30.2561 166.567 8.24429 -177.355
lowerback 12.139 0.655061 2.71568
upperback -2.9706 1.53117 1.76742
thorax -10.0211 0.654321 0.0506894
lowerneck 9.89543 -4.88761 -9.27661
upperneck 17.4405 -5.63133 3.42784
head 4.06175 -2.39568 2.601
rclavicle -2.02263e-014 -4.4329e-014
rhumerus 111.822 -27.2098 -58.0193
rradius 24.9971
rwrist 1.48993
rhand -17.013 -21.4216
rfingers 7.12502
rthumb 9.22276 -51.1999
lclavicle -2.02263e-014 -4.4329e-014
lhumerus 98.4496 38.6958 36.1196
lradius 29.5308
lwrist 4.20965
lhand -17.1412 6.65883
lfingers 7.12502
lthumb 9.09914 36.4426
rfemur 1.03293 -1.28555 21.5243
rtibia 31.724
rfoot 48.688 -17.8869
rtoes 66.2774
lfemur -0.434067 0.194195 -12.2063
ltibia 29.9505
lfoot 10.7022 1.3545
ltoes -0.0623164
1447
root 12.8836 19.5348 30.1693 166.061 7.51008 -179.22
lowerback 12.9042 1.31975 0.0769131
upperback -2.9963 1.92323 1.26974
thorax -10.5572 0.968163 0.90906
lowerneck 8.31321 -5.33204 -8.02632
upperneck 18.5791 -5.99667 3.32138
head 4.63281 -2.47727 2.32621
rclavicle -1.33683e-014 -9.93923e-016
rhumerus 111.282 -28.5405 -57.3165
rradius 25.3348
rwrist 1.81306
rhand -17.0347 -22.7875
rfingers 7.12502
rthumb 9.20183 -52.5667
lclavicle -1.33683e-014 -9.93923e-016
lhumerus 101.085 37.7492 39.1834
lradius 29.575
lwrist 3.09593
lhand -15.7523 5.75687
lfingers 7.12502
lthumb 10.4392 35.4777
rfemur 1.63034 -2.17069 19.2101
rtibia 31.8371
rfoot 48.8132 -17.1598
rtoes 66.3074
lfemur 0.0864631 0.0425591 -14.3282
ltibia 29.9088
lfoot 10.7172 1.59747
ltoes 0.447675
1448
root 12.8895 19.4778 30.1039 166.509 8.13573 -178.879
lowerback 12.3586 1.1799 0.518257
upperback -3.04806 1.82285 1.39358
thorax -10.2818 0.901342 0.824831
lowerneck 8.51415 -4.81042 -8.80089
upperneck 18.3154 -5.46508 4.10431
head 4.52914 -2.24531 2.71504
rclavicle 2.5345e-015 -2.5842e-015
rhumerus 111.518 -28.3537 -57.544
rradius 25.7404
rwrist 0.958848
rhand -18.2029 -23.6865
rfingers 7.12502
rthumb 8.07453 -53.5122
lclavicle 2.5345e-015 -2.5842e-015
lhumerus 101.093 38.4804 39.1954
lradius 30.0271
lwrist 2.58632
lhand -14.8709 4.63423
lfingers 7.12502
lthumb 11.2892 34.3104
rfemur 1.33963 -1.92951 19.8074
rtibia 31.9078
rfoot 49.4029 -17.2267
rtoes 66.3437
lfemur 0.00426325 -0.165407 -13.888
ltibia 29.8968
lfoot 10.561 2.64119
ltoes 2.44057
1449
root 12.8941 19.414 30.0331 166.851 8.44324 -178.541
lowerback 12.0783 0.843105 1.07769
upperback -3.04814 1.4716 1.47607
thorax -10.1003 0.705187 0.675084
lowerneck 8.27623 -4.53304 -10.0115
upperneck 18.1756 -5.3211 5.11718
head 4.57195 -2.23682 3.22979
rclavicle -7.50412e-015 -8.34896e-015
rhumerus 111.679 -28.2499 -57.5594
rradius 26.477
rwrist -0.922559
rhand -19.6985 -24.7445
rfingers 7.12502
rthumb 6.63088 -54.6207
lclavicle -7.50412e-015 -8.34896e-015
lhumerus 100.483 39.5748 38.4554
lradius 30.8234
lwrist 2.48359
lhand -14.5766 3.80055
lfingers 7.12502
lthumb 11.573 33.461
rfemur 1.23207 -1.89211 20.2837
rtibia 32.0309
rfoot 50.2289 -17.3056
rtoes 66.387
lfemur 0.0684927 0.0227617 -13.4014
ltibia 29.7598
lfoot 10.8085 2.8241
ltoes 2.70537
1450
root 12.8983 19.341 29.9584 167.149 8.60141 -178.301
lowerback 12.3243 1.14415 1.01321
upperback -3.16016 1.88263 1.55637
thorax -10.3772 0.908558 0.707955
lowerneck 7.52786 -5.18396 -9.6034
upperneck 18.2578 -6.2079 5.2433
head 4.77164 -2.65725 3.16009
rclavicle -3.19546e-014 -7.7526e-015
rhumerus 110.944 -29.3985 -56.5982
rradius 27.5214
rwrist -2.47475
rhand -20.3999 -25.8007
rfingers 7.12502
rthumb 5.95372 -55.6971
lclavicle -3.19546e-014 -7.7526e-015
lhumerus 101.32 39.4981 39.6222
lradius 31.7819
lwrist 2.29275
lhand -14.1776 3.00766
lfingers 7.12502
lthumb 11.9579 32.6461
rfemur 1.30431 -2.0739 20.5369
rtibia 31.944
rfoot 50.801 -17.5717
rtoes 66.4229
lfemur 0.0237428 0.28281 -13.0212
ltibia 29.86
lfoot 11.0239 2.50858
ltoes 1.17366
1451
root 12.9005 19.2693 29.8857 167.497 8.88101 -177.891
lowerback 12.0197 0.98625 1.45114
upperback -3.22458 1.76033 1.70212
thorax -10.2607 0.833025 0.647998
lowerneck 8.26368 -5.27016 -9.93399
upperneck 17.4921 -6.4379 5.17164
head 4.44729 -2.82601 3.19651
rclavicle 6.60959e-015 -5.76476e-015
rhumerus 110.925 -29.1878 -56.906
rradius 28.6188
rwrist -3.83529
rhand -20.9454 -26.3047
rfingers 7.12502
rthumb 5.42706 -56.2152
lclavicle 6.60959e-015 -5.76476e-015
lhumerus 99.6363 40.4406 37.9385
lradius 33.2677
lwrist 4.48943
lhand -14.3819 2.86429
lfingers 7.12502
lthumb 11.7608 32.5141
rfemur 1.28523 -2.394 20.9254
rtibia 31.8911
rfoot 50.9691 -17.9474
rtoes 66.4475
lfemur 0.00695236 0.490091 -12.4286
ltibia 29.9346
lfoot 11.2808 2.17446
ltoes -0.52444
1452
root 12.9032 19.1993 29.8178 167.811 9.0984 -177.469
lowerback 11.6611 0.747418 1.92681
upperback -3.24722 1.52902 1.83751
thorax -10.0663 0.703612 0.577143
lowerneck 9.38064 -5.37855 -10.1483
upperneck 16.4591 -6.68559 4.68527
head 3.97179 -3.01281 3.09554
rclavicle -1.03368e-014 1.78906e-014
rhumerus 110.665 -29.1516 -56.8788
rradius 29.945
rwrist -5.95181
rhand -21.7014 -26.4358
rfingers 7.12502
rthumb 4.6971 -56.3637
lclavicle -1.03368e-014 1.78906e-014
lhumerus 97.9274 41.502 36.3607
lradius 34.728
lwrist 4.96963
lhand -12.5983 3.14136
lfingers 7.12502
lthumb 13.4804 32.6851
rfemur 1.25352 -3.0785 21.2663
rtibia 31.9661
rfoot 50.3459 -17.9632
rtoes 66.4458
lfemur 0.0298335 0.602665 -11.8288
ltibia 29.9492
lfoot 11.738 1.88015
ltoes -2.13471
1453
root 12.9084 19.1189 29.7515 168.16 9.23568 -177.008
lowerback 11.3685 0.725624 2.28125
upperback -3.29132 1.56743 1.96291
thorax -9.93857 0.710248 0.507652
lowerneck 10.1533 -5.65231 -10.0111
upperneck 15.44 -7.16698 4.52572
head 3.56642 -3.28079 3.03369
rclavicle -1.98785e-015 1.78906e-015
rhumerus 109.595 -30.0897 -55.7633
rradius 31.6071
rwrist -8.10487
rhand -21.9823 -26.7234
rfingers 7.12502
rthumb 4.42582 -56.6571
lclavicle -1.98785e-015 1.78906e-015
lhumerus 96.1795 42.2677 34.8149
lradius 36.3956
lwrist 5.26713
lhand -12.5623 3.45378
lfingers 7.12502
lthumb 13.5151 32.9952
rfemur 1.2161 -4.04874 21.6556
rtibia 32.2152
rfoot 49.0498 -17.4548
rtoes 66.4209
lfemur -0.0163 0.679061 -11.1941
ltibia 29.9134
lfoot 12.2188 1.68705
ltoes -2.44497
1454
root 12.9102 19.0219 29.6884 168.639 9.29819 -177.078
lowerback 11.5859 0.85224 2.08761
upperback -3.53636 1.72204 1.93319
thorax -10.3416 0.79153 0.550915
lowerneck 9.20658 -5.97021 -9.90346
upperneck 15.5659 -7.59467 4.67313
head 3.78168 -3.50269 3.02473
rclavicle -4.47266e-015 1.31198e-014
rhumerus 108.167 -31.1006 -54.4733
rradius 33.581
rwrist -9.353
rhand -22.2237 -27.6618
rfingers 7.12502
rthumb 4.19275 -57.6003
lclavicle -4.47266e-015 1.31198e-014
lhumerus 94.3868 42.8031 33.4411
lradius 38.2278
lwrist 4.77486
lhand -13.8792 3.51947
lfingers 7.12502
lthumb 12.2456 33.141
rfemur 0.947757 -4.90408 21.5085
rtibia 32.6909
rfoot 46.8927 -17.2769
rtoes 66.3718
lfemur -0.263701 0.617965 -11.2317
ltibia 29.8091
lfoot 12.4696 1.8187
ltoes -0.86315
1455
root 12.9095 18.9083 29.6307 168.963 9.31593 -177.251
lowerback 10.9281 0.872584 1.85371
upperback -3.56858 1.68754 1.89087
thorax -9.99315 0.791637 0.653526
lowerneck 9.8718 -5.81902 -10.1468
upperneck 14.9589 -7.52267 5.1071
head 3.51019 -3.47939 3.22093
rclavicle -4.35338e-014 -1.25234e-014
rhumerus 106.495 -31.9287 -53.0234
rradius 35.7732
rwrist -10.3389
rhand -23.5841 -28.1868
rfingers 7.12502
rthumb 2.87902 -58.1471
lclavicle -4.35338e-014 -1.25234e-014
lhumerus 92.3742 43.242 32.126
lradius 40.2789
lwrist 3.3069
lhand -15.4422 3.75737
lfingers 7.12502
lthumb 10.7383 33.4629
rfemur 0.897972 -5.76676 21.2195
rtibia 33.1583
rfoot 44.1874 -17.5317
rtoes 66.2981
lfemur -0.423224 0.109807 -11.5018
ltibia 29.9028
lfoot 12.157 1.86477
ltoes 0.258423
1456
root 12.9096 18.7956 29.5784 169.208 9.29466 -177.682
lowerback 10.7588 0.534372 1.68144
upperback -3.60438 1.19177 1.79258
thorax -9.93253 0.559458 0.74258
lowerneck 9.40543 -5.30219 -11.1109
upperneck 14.8397 -6.96448 5.62826
head 3.55385 -3.26126 3.53438
rclavicle 1.44119e-015 -1.70955e-014
rhumerus 105.266 -32.3066 -51.9469
rradius 38.0719
rwrist -11.0845
rhand -26.0195 -27.7576
rfingers 7.12502
rthumb 0.526927 -57.7367
lclavicle 1.44119e-015 -1.70955e-014
lhumerus 88.9525 44.3105 29.4052
lradius 42.6494
lwrist 2.09732
lhand -17.6541 4.31583
lfingers 7.12502
lthumb 8.60417 34.1205
rfemur 0.862755 -6.49698 20.6643
rtibia 33.6564
rfoot 41.5856 -17.8834
rtoes 66.2107
lfemur -0.534942 -0.370331 -12.0656
ltibia 30.1489
lfoot 11.2342 0.970325
ltoes -0.538999
1457
root 12.9126 18.6697 29.5275 169.403 9.59967 -177.023
lowerback 11.0488 1.03833 1.9063
upperback -3.67731 1.94655 2.02442
thorax -10.1891 0.919499 0.714368
lowerneck 9.66624 -6.01936 -10.0078
upperneck 13.9405 -7.8963 5.09166
head 3.25262 -3.70995 3.18195
rclavicle -2.08724e-014 4.17448e-015
rhumerus 102.174 -34.5095 -48.6861
rradius 40.6461
rwrist -11.0715
rhand -27.4954 -28.226
rfingers 7.12502
rthumb -0.898555 -58.2038
lclavicle -2.08724e-014 4.17448e-015
lhumerus 88.2051 44.0231 29.9628
lradius 45.125
lwrist 1.07486
lhand -20.1452 4.82791
lfingers 7.12502
lthumb 6.19967 34.7172
rfemur 1.07809 -6.56882 21.4925
rtibia 34.1679
rfoot 39.0815 -18.6524
rtoes 66.1057
lfemur -0.320571 -0.395297 -11.2562
ltibia 30.5564
lfoot 9.71206 -0.766991
ltoes -1.10153
1458
root 12.9128 18.5365 29.4826 169.707 9.73083 -176.909
lowerback 10.9399 0.965747 2.01539
upperback -3.74907 1.88055 2.11279
thorax -10.2045 0.887348 0.762183
lowerneck 10.1115 -6.06881 -10.0968
upperneck 13.1025 -8.0553 4.94236
head 2.94133 -3.82603 3.16472
rclavicle 1.21259e-014 1.2921e-014
rhumerus 100.254 -35.1866 -47.2271
rradius 43.4616
rwrist -10.1363
rhand -27.7767 -29.9134
rfingers 7.12502
rthumb -1.17028 -59.89
lclavicle 1.21259e-014 1.2921e-014
lhumerus 85.5694 44.4926 28.5734
lradius 47.8552
lwrist 0.78985
lhand -22.3274 5.1085
lfingers 7.12502
lthumb 4.09264 35.0489
rfemur 0.9941 -6.79587 21.6846
rtibia 34.8233
rfoot 36.2655 -19.4536
rtoes 65.9624
lfemur -0.251596 -0.38247 -11.1121
ltibia 31.0227
lfoot 6.58739 -2.29021
ltoes 0.0131676
